<svg xmlns="http://www.w3.org/2000/svg" viewBox="0 0 48 68" fill="currentColor"><path fill-rule="evenodd" d="M0,0H48V48L24,68 0,48ZM39,23 39,27 36,27 36,26 33,26 33,25 32,25 32,30 39,29 39,32 40,32 40,36 41,36 41,37 40,37 40,38 37,38 37,39 32,39 31,35 26,35 26,37 30,40 30,42 29,42 25,47 24,47 21,43 18,42 18,40 22,37 22,35 18,35 18,36 17,36 17,39 8,38 8,34 9,34 9,30 10,30 10,29 17,30 17,26 12,26 12,27 9,26 8,18 11,18 11,17 15,17 15,16 16,16 16,17 17,17 17,20 22,20 22,19 18,16 18,14 19,14 20,12 22,12 23,9 25,9 25,10 30,14 30,16 27,18 27,20 31,20 31,19 32,19 32,16 34,16 34,17 41,18 40,23ZM2,50 4,50 6,53 2,53ZM44,51 46,50 46,53 43,53Z"/></svg>
