<svg id="Gruppe_2" data-name="Gruppe 2" xmlns="http://www.w3.org/2000/svg" width="512" height="512" viewBox="0 0 512 512">
  <metadata><?xpacket begin="﻿" id="W5M0MpCehiHzreSzNTczkc9d"?>
<x:xmpmeta xmlns:x="adobe:ns:meta/" x:xmptk="Adobe XMP Core 9.1-c002 79.b7c64cc, 2024/07/16-07:59:40        ">
   <rdf:RDF xmlns:rdf="http://www.w3.org/1999/02/22-rdf-syntax-ns#">
      <rdf:Description rdf:about=""
            xmlns:dc="http://purl.org/dc/elements/1.1/"
            xmlns:xmp="http://ns.adobe.com/xap/1.0/">
         <dc:creator>
            <rdf:Seq>
               <rdf:li>SlowMoSloth</rdf:li>
            </rdf:Seq>
         </dc:creator>
         <xmp:CreatorTool>Adobe Photoshop 26.0 (Windows)</xmp:CreatorTool>
      </rdf:Description>
   </rdf:RDF>
</x:xmpmeta>
                                                                                                    
                                                                                                    
                                                                                                    
                                                                                                    
                                                                                                    
                                                                                                    
                                                                                                    
                                                                                                    
                                                                                                    
                                                                                                    
                                                                                                    
                                                                                                    
                                                                                                    
                                                                                                    
                                                                                                    
                                                                                                    
                                                                                                    
                                                                                                    
                                                                                                    
                                                                                                    
                           
<?xpacket end="w"?></metadata>
<defs>
    <style>
      .cls-1, .cls-2 {
        fill: #fff;
      }

      .cls-2 {
        fill-rule: evenodd;
      }
    </style>
  </defs>
  <rect id="Rechteck_1" data-name="Rechteck 1" class="cls-1" x="241" y="8" width="35" height="114"/>
  <path id="Form_2" data-name="Form 2" class="cls-2" d="M247,159s0.2-7.2,0-19a60.528,60.528,0,0,1-35-26H201l-2,32-69,22,70,24v34h9c13.6-24.6,38-33,38-33V179H196V159h51Z"/>
  <path id="Form_2_Kopie" data-name="Form 2 Kopie" class="cls-2" d="M266.094,159s-0.2-7.2,0-19a60.492,60.492,0,0,0,34.972-26h10.991l2,32L383,168l-69.944,24v34h-8.993c-13.589-24.6-37.969-33-37.969-33V179h50.959V159H266.094Z"/>
  <path id="Form_3" data-name="Form 3" class="cls-2" d="M50,209l59,181,14-56,96,135L130,256l-7,59Z"/>
  <path id="Form_4" data-name="Form 4" class="cls-2" d="M302,467L444,292l-51,21,48-100L318,339l53-7Z"/>
  <path id="Form_5" data-name="Form 5" class="cls-2" d="M228,230h60V401l-30,92-31-92Z"/>
</svg>
